# xmcd
#
# Track frame offsets:
#	150
#	20719
#	38738
#	55869
#	72855
#	90462
#	109203
#	124198
#	142694
#	160661
#	178143
#	194283
#	211365
#	226447
#
# Disc length: 3244 seconds
# Revision: 0
# Processed by: cddbd v1.5.2PL0 Copyright (c) Steve Scherf et al.
# Submitted via: dBpowerAMP V12.0
#
DISCID=bd0caa0e
DTITLE=Carrie Underwood - Some hearts
DYEAR=2005
DGENRE=Country
TTITLE0=Wasted
TTITLE1=Don't forget to remember me
TTITLE2=Some hearts
TTITLE3=Jesus take the wheel
TTITLE4=The night before [Life goes on]
TTITLE5=Lessons learned
TTITLE6=Before he cheats
TTITLE7=Starts with goodbye
TTITLE8=I Just can't live a lie
TTITLE9=We're young and beautiful
TTITLE10=That's where it is
TTITLE11=Whenever you remember
TTITLE12=I ain't in checotah anymore
TTITLE13=Inside your heaven
EXTD=
EXTT0=
EXTT1=
EXTT2=
EXTT3=
EXTT4=
EXTT5=
EXTT6=
EXTT7=
EXTT8=
EXTT9=
EXTT10=
EXTT11=
EXTT12=
EXTT13=
PLAYORDER=
